<svg width="20" height="20" viewBox="0 0 20 20" fill="none" xmlns="http://www.w3.org/2000/svg">
<path fill-rule="evenodd" clip-rule="evenodd" d="M6.24999 18.1251H13.7892C14.8283 18.1251 15.8258 17.7126 16.5608 16.9776C17.2958 16.2426 17.7083 15.2451 17.7083 14.2059V8.7451C17.7083 7.76594 17.2517 6.8426 16.4742 6.2476C15.1267 5.21677 12.7267 3.38177 11.375 2.34844C10.5633 1.7276 9.43666 1.7276 8.62499 2.34844C7.77738 2.99618 6.5175 3.95961 5.36346 4.84211C4.67944 5.36518 4.0326 5.85982 3.53082 6.24344C2.74999 6.84094 2.29166 7.7676 2.29166 8.75094V14.1668C2.29166 15.2168 2.70832 16.2234 3.45082 16.9659C4.19332 17.7084 5.19999 18.1251 6.24999 18.1251ZM15.6767 16.0934C15.1758 16.5943 14.4975 16.8751 13.7892 16.8751H12.7083V14.5832C12.7083 13.3176 11.6823 12.2915 10.4167 12.2915H9.58332C8.31767 12.2915 7.29166 13.3176 7.29166 14.5832V16.8751H6.24999C5.53166 16.8751 4.84249 16.5901 4.33499 16.0818C3.82666 15.5743 3.54166 14.8851 3.54166 14.1668V8.75094C3.54166 8.1576 3.81832 7.5976 4.28999 7.23677C5.38958 6.39611 7.18582 5.02229 8.54335 3.98401C8.85045 3.74913 9.1351 3.53142 9.38416 3.34094C9.74749 3.06344 10.2525 3.06344 10.6158 3.34094C11.2337 3.81327 12.0706 4.45328 12.9258 5.10736C13.9417 5.88422 14.9834 6.68092 15.715 7.2401C16.1833 7.59844 16.4583 8.1551 16.4583 8.7451V14.2059C16.4583 14.9143 16.1775 15.5926 15.6767 16.0934ZM8.54166 16.8751V14.5832C8.54166 14.0079 9.00803 13.5415 9.58332 13.5415H10.4167C10.992 13.5415 11.4583 14.0079 11.4583 14.5832V16.8751H8.54166Z" fill="#2E2E2E"/>
</svg>
