<svg width="20" height="20" viewBox="0 0 20 20" fill="none" xmlns="http://www.w3.org/2000/svg">
<path fill-rule="evenodd" clip-rule="evenodd" d="M11.0542 15.686L13.3958 13.3443C13.4058 13.3343 13.415 13.3243 13.4242 13.3143C13.4242 13.3143 13.8317 12.8493 14.4158 12.181C15.5933 10.8351 16.1508 9.05598 15.9517 7.27931C15.7525 5.50264 14.815 3.89098 13.3692 2.83931L13.3675 2.83848C11.3742 1.38848 8.6725 1.38848 6.67833 2.83848L6.67666 2.83931C5.23083 3.89098 4.29333 5.50264 4.09416 7.27931C3.89583 9.05598 4.4525 10.8351 5.63 12.181C6.215 12.8493 6.62166 13.3143 6.62166 13.3143C6.63083 13.3243 6.64 13.3343 6.65 13.3443L8.99166 15.686C9.56166 16.256 10.485 16.256 11.0542 15.686ZM10.17 14.8026C10.0892 14.8835 9.9575 14.8835 9.87583 14.8026L7.54916 12.4751L6.57083 11.3576C5.625 10.276 5.17666 8.84681 5.33666 7.41848C5.49666 5.99014 6.25 4.69598 7.4125 3.85014L7.41333 3.84931C8.96916 2.71764 11.0767 2.71764 12.6325 3.84931L12.6342 3.85014C13.7958 4.69598 14.5492 5.99014 14.7092 7.41848C14.8692 8.84681 14.4217 10.276 13.475 11.3576L12.4975 12.4751L10.17 14.8026Z" fill="#2E2E2E"/>
<path fill-rule="evenodd" clip-rule="evenodd" d="M10.0808 5.28931C8.86083 5.28931 7.87083 6.28014 7.87083 7.50014C7.87083 8.72014 8.86083 9.71098 10.0808 9.71098C11.3008 9.71098 12.2917 8.72014 12.2917 7.50014C12.2917 6.28014 11.3008 5.28931 10.0808 5.28931ZM10.0808 6.53931C10.6108 6.53931 11.0417 6.97014 11.0417 7.50014C11.0417 8.03014 10.6108 8.46098 10.0808 8.46098C9.55083 8.46098 9.12083 8.03014 9.12083 7.50014C9.12083 6.97014 9.55083 6.53931 10.0808 6.53931Z" fill="#2E2E2E"/>
<path fill-rule="evenodd" clip-rule="evenodd" d="M5 18.1251H15C15.345 18.1251 15.625 17.8451 15.625 17.5001C15.625 17.1551 15.345 16.8751 15 16.8751H5C4.655 16.8751 4.375 17.1551 4.375 17.5001C4.375 17.8451 4.655 18.1251 5 18.1251Z" fill="#2E2E2E"/>
</svg>
