<svg width="24" height="24" viewBox="0 0 24 24" fill="none" xmlns="http://www.w3.org/2000/svg">
<path fill-rule="evenodd" clip-rule="evenodd" d="M9.514 2.77399C9.698 2.72399 9.9 2.74299 10.078 2.84199C10.44 3.04399 10.569 3.50099 10.368 3.86299C9.79 4.89699 9.462 6.08799 9.462 7.35599C9.462 11.32 12.68 14.538 16.644 14.538C17.911 14.538 19.101 14.21 20.134 13.634C20.496 13.432 20.953 13.562 21.155 13.924C21.218 14.037 21.249 14.161 21.25 14.282C21.251 14.347 21.243 14.413 21.227 14.479C20.172 18.655 16.387 21.75 11.885 21.75C6.567 21.75 2.25 17.433 2.25 12.115C2.25 7.62899 5.323 3.85499 9.465 2.78799L9.514 2.77399ZM8.348 4.78799C5.628 6.10499 3.75 8.89199 3.75 12.115C3.75 16.605 7.395 20.25 11.885 20.25C15.107 20.25 17.895 18.372 19.212 15.652C18.4 15.903 17.538 16.038 16.644 16.038C11.852 16.038 7.962 12.148 7.962 7.35599C7.962 6.46199 8.097 5.59999 8.348 4.78799Z" fill="white"/>
</svg>
