<svg width="1280" height="281" viewBox="0 0 1280 281" fill="none" xmlns="http://www.w3.org/2000/svg">
<path d="M401.724 6.10352e-05C317.674 6.10352e-05 255.563 54.7014 255.563 140.422C255.563 226.143 318.981 280.844 401.724 280.844C484.466 280.844 547.885 227.741 547.885 140.422C547.885 53.1033 485.773 6.10352e-05 401.724 6.10352e-05ZM401.724 259.414C343.898 259.414 299.585 214.374 299.585 140.422C299.585 66.4699 342.954 21.4302 401.724 21.4302C460.493 21.4302 503.862 67.7775 503.862 140.422C503.862 213.067 459.549 259.414 401.724 259.414Z" fill="white"/>
<path d="M716.351 172.968C716.351 203.188 717.005 237.185 717.005 237.185C717.005 252.15 719.184 274.379 719.329 274.67H672.038C672.038 274.67 674.726 252.223 674.726 241.036C674.726 232.318 676.542 201.081 674.944 178.053C657.146 142.457 589.078 42.0621 589.078 42.0621C577.019 25.3538 562.344 6.24835 562.344 6.24835C562.344 6.24835 579.924 6.90213 591.62 6.90213C603.316 6.90213 621.477 6.24835 621.477 6.24835C621.477 6.321 705.454 150.448 705.454 150.448C705.454 150.448 800.619 6.39364 800.401 6.24835L814.857 6.53888L832.655 6.24835C832.655 6.24835 818.417 23.8283 814.276 30.0031C784.782 74.0983 741.268 132.359 716.351 172.968Z" fill="white"/>
<path d="M948.369 6.17581L1021.09 184.155C1028.21 201.808 1037.72 223.165 1049.71 248.373C1054.21 257.962 1058.5 266.752 1062.57 274.598H1005.76C1005.76 274.598 1005.39 272.781 1004.23 269.149C995.37 240.818 983.819 209.217 983.819 209.217C981.858 208.927 976.119 208.491 967.038 207.837C959.265 207.474 948.223 207.256 933.404 207.256H895.701C883.279 207.256 873.545 207.474 866.498 207.837L857.708 208.418L851.679 208.782L834.535 250.044L827.924 265.59L824.437 274.525H794.507C794.507 274.525 796.541 270.602 797.123 269.44C810.126 243.578 826.253 209.363 833.372 193.671L843.325 171.515L915.461 6.17581C915.461 6.17581 927.738 6.53906 931.733 6.53906C936.019 6.53906 948.369 6.17581 948.369 6.17581ZM859.888 187.061C866.789 187.424 872.818 187.642 878.194 187.642H933.622C956.723 187.642 970.889 187.424 976.192 187.061L919.384 45.0407L859.888 187.061Z" fill="white"/>
<path d="M1114.74 94.5117C1114.74 76.859 1114.23 56.8091 1113.21 34.2166C1112.92 28.7683 1112.49 19.4698 1111.83 6.17581C1120.62 6.46639 1130.43 6.68438 1134.71 6.68438C1141.47 6.68438 1148.08 6.46639 1161.08 6.17581C1160.07 24.9908 1159.27 43.8057 1158.76 62.6207C1158.47 76.6411 1158.4 87.2472 1158.4 94.5117V188.877C1158.4 198.321 1158.54 210.743 1158.76 225.998L1159.34 247.211L1159.56 254.62C1196.54 253.966 1224.36 253.095 1243.03 251.932C1253.63 251.424 1265.98 250.698 1280 249.826V274.743H1111.98C1112.63 262.03 1113.07 253.095 1113.36 247.937C1114.37 226.144 1114.88 206.53 1114.88 189.022V94.657L1114.74 94.5117Z" fill="white"/>
<path d="M160.327 156.041C153.135 150.738 144.563 148.05 134.611 147.106C155.242 142.166 171.005 134.248 182.556 123.351C194.615 111.946 200.644 95.8914 200.644 79.4011C200.644 55.9369 193.38 39.0108 177.834 25.6442C160.327 10.97 132.867 4.28665 96.5447 4.28665C85.3575 4.28665 71.7002 4.57727 55.5005 5.23107C39.0101 5.88487 20.5584 6.17537 0 6.17537C0 6.17537 3.70494 43.2241 3.70494 94.7291V177.399C3.70494 185.172 3.55963 196.722 3.3417 212.05C2.83319 232.536 2.17936 250.552 1.38026 265.952C1.01704 271.764 0.726459 274.742 0.58117 274.742H50.1974C49.5436 268.422 48.8898 259.414 48.236 247.864C47.0737 228.54 46.4926 208.999 46.4926 189.312V154.37C46.4926 154.37 80.345 154.225 89.4982 154.225C92.404 154.225 96.69 154.661 100.758 155.751C149.503 168.463 154.733 258.615 205.657 276.123C214.81 279.246 233.48 279.682 242.415 269.803C196.286 243.869 193.38 180.522 160.327 156.041ZM88.1179 136.572C81.2167 137.371 73.2258 137.735 64 137.735C56.9534 137.735 51.1419 137.517 46.4926 137.154V25.2809C55.7911 24.8451 85.5027 23.9007 90.2973 23.9007C111.219 23.9007 127.491 28.55 139.114 37.9211C151.028 47.8008 156.985 59.9324 156.985 79.5464V82.0889C156.985 99.7416 149.575 113.254 134.828 122.552C123.278 130.107 107.732 134.756 88.1179 136.572Z" fill="white"/>
</svg>
