<?xml version="1.0" encoding="utf-8"?><svg width="20" height="20" fill="none" xmlns="http://www.w3.org/2000/svg" viewBox="0 0 20 20"><path fill-rule="evenodd" clip-rule="evenodd" d="M6.25 18.125h7.54a3.92 3.92 0 003.918-3.92v-5.46c0-.98-.456-1.902-1.234-2.497l-5.099-3.9a2.263 2.263 0 00-2.75 0L5.363 4.842 3.531 6.243a3.157 3.157 0 00-1.24 2.508v5.416a3.958 3.958 0 003.959 3.958zm9.427-2.032c-.501.501-1.18.782-1.888.782h-1.08v-2.292a2.292 2.292 0 00-2.292-2.292h-.834a2.292 2.292 0 00-2.291 2.292v2.292H6.25a2.706 2.706 0 01-2.708-2.708V8.75c0-.593.276-1.153.748-1.514 1.1-.84 2.896-2.215 4.253-3.253l.841-.643a1.015 1.015 0 011.232 0l2.31 1.766 2.789 2.133c.468.358.743.915.743 1.505v5.46c0 .71-.28 1.388-.781 1.888zm-7.135.782v-2.292c0-.575.466-1.042 1.041-1.042h.834c.575 0 1.041.467 1.041 1.042v2.292H8.542z" fill="#2E2E2E"/></svg>