<?xml version="1.0" encoding="utf-8"?><svg width="20" height="20" fill="none" xmlns="http://www.w3.org/2000/svg" viewBox="0 0 20 20"><path fill-rule="evenodd" clip-rule="evenodd" d="M11.054 15.686l2.342-2.342.028-.03.992-1.133a6.368 6.368 0 00-1.047-9.342h-.002a5.687 5.687 0 00-6.689 0h-.001a6.368 6.368 0 00-1.047 9.342l.992 1.133.028.03 2.342 2.342c.57.57 1.493.57 2.062 0zm-.884-.883a.209.209 0 01-.294 0l-2.327-2.328-.978-1.117a5.118 5.118 0 01.841-7.508h.001a4.436 4.436 0 015.22 0h.001a5.12 5.12 0 01.841 7.508l-.977 1.117-2.328 2.328z" fill="#2E2E2E"/><path fill-rule="evenodd" clip-rule="evenodd" d="M10.08 5.29a2.211 2.211 0 000 4.421c1.22 0 2.212-.99 2.212-2.21S11.3 5.288 10.08 5.288zm0 1.25a.962.962 0 010 1.921.961.961 0 010-1.922zM5 18.125h10a.625.625 0 000-1.25H5a.625.625 0 000 1.25z" fill="#2E2E2E"/></svg>