<?xml version="1.0" encoding="utf-8"?><svg width="34" height="33" fill="none" xmlns="http://www.w3.org/2000/svg" viewBox="0 0 34 33"><path d="M19.693 12.811v-.12c0-.933-.284-1.515-.852-1.986-.555-.445-1.334-.669-2.33-.669-.228 0-1.642.044-2.087.064v5.335c.224.02.502.027.836.027.438 0 .823-.02 1.15-.057.933-.086 1.675-.307 2.227-.668.705-.445 1.056-1.09 1.056-1.93v.004z" fill="#fff"/><path d="M17.1 5.57c-5.9 0-10.681 4.78-10.681 10.68 0 5.902 4.78 10.682 10.681 10.682 5.9 0 10.681-4.78 10.681-10.681 0-5.9-4.78-10.681-10.68-10.681zm4.915 16.488c-2.43-.836-2.675-5.132-5.002-5.737a2.285 2.285 0 00-.538-.07c-.435 0-2.05.007-2.05.007v1.665c0 .939.027 1.872.084 2.791.03.552.06.976.094 1.28h-2.367s.02-.14.037-.417c.036-.736.066-1.592.093-2.571.014-.73.02-1.28.02-1.652v-3.941c0-2.458-.177-4.223-.177-4.223.976 0 1.859-.013 2.645-.047.772-.03 1.424-.046 1.955-.046 1.732 0 3.043.32 3.875 1.02.742.638 1.086 1.443 1.086 2.563 0 .786-.287 1.552-.862 2.093-.552.518-1.3.9-2.283 1.134.474.043.882.17 1.227.424 1.578 1.167 1.711 4.19 3.911 5.423-.425.471-1.314.451-1.752.3l.004.004zM28.877 20.056c-.143.444-.314.879-.508 1.297-.13.28-.16.595-.07.892l1.274 4.306c.184-.22.36-.448.531-.678a1.22 1.22 0 00.18-1.07l-1.403-4.747h-.004zM27.19 23.409c-.144.2-.295.398-.449.588-.27.334-.377.776-.254 1.19l1.017 3.444c.13-.11.257-.22.384-.335a1.24 1.24 0 00.368-1.277l-1.067-3.614v.004zM25.167 25.632c-.124.107-.248.21-.378.31a1.171 1.171 0 00-.388 1.255l.886 3.002c.14-.08.278-.164.412-.251a.969.969 0 00.417-1.093l-.952-3.223h.003zM22.94 27.166l-.292.15a1.038 1.038 0 00-.531 1.224l.825 2.795.325-.13a.919.919 0 00.538-1.11l-.866-2.932v.003zM20.545 28.136l-.247.07a.896.896 0 00-.632 1.117l.812 2.755c.1-.02.2-.044.304-.067a.826.826 0 00.599-1.037l-.84-2.838h.004zM33.055 16.25l.13-.447c.051-.17.074-.348.064-.525a16.17 16.17 0 00-.367-2.594l-1.053 3.563 1.053 3.564c.19-.842.314-1.708.367-2.594a1.547 1.547 0 00-.063-.525l-.13-.448v.007zM28.369 11.15c.194.42.364.852.508 1.297l1.404-4.748a1.23 1.23 0 00-.177-1.07c-.17-.23-.348-.457-.531-.678l-1.274 4.306c-.087.297-.057.612.07.893zM27.19 9.093l1.066-3.614a1.241 1.241 0 00-.368-1.277 18.469 18.469 0 00-.384-.334l-1.017 3.443c-.123.415-.016.856.254 1.19.154.191.305.388.448.589v.003zM24.788 6.56c.127.1.254.207.378.31l.953-3.223a.967.967 0 00-.418-1.093c-.137-.087-.274-.17-.412-.25l-.886 3.002c-.137.458.014.956.388 1.253h-.003zM22.66 5.192c.093.047.187.097.277.144l.866-2.929a.92.92 0 00-.532-1.11c-.11-.043-.217-.09-.327-.13l-.826 2.795c-.144.488.09 1 .541 1.23zM20.286 4.296c.087.023.174.047.26.073l.836-2.835a.824.824 0 00-.595-1.036l-.304-.07-.812 2.755a.892.892 0 00.618 1.113h-.003z" fill="#fff"/><path d="M30.406 16.251l1.588-5.376a1.57 1.57 0 00-.056-1.07 15.857 15.857 0 00-.529-1.1l-1.939 6.57a.595.595 0 00-.023.217c.017.254.037.505.037.763 0 .257-.017.508-.037.762a.531.531 0 00.023.217l1.94 6.57c.19-.358.367-.726.527-1.1a1.57 1.57 0 00.057-1.07l-1.588-5.376v-.007zM5.829 21.356a11.725 11.725 0 01-.509-1.297l-1.404 4.747a1.23 1.23 0 00.177 1.07c.171.23.348.458.532.679l1.274-4.306a1.285 1.285 0 00-.07-.893zM7.01 23.409l-1.067 3.614c-.137.46.01.956.368 1.277.127.113.254.224.384.334l1.016-3.444A1.302 1.302 0 007.457 24c-.153-.19-.304-.387-.448-.588v-.003zM9.409 25.943c-.127-.1-.254-.208-.378-.311l-.953 3.223a.967.967 0 00.418 1.093c.137.087.274.17.411.25l.886-3.002a1.171 1.171 0 00-.388-1.253h.004zM11.536 27.314c-.094-.047-.187-.098-.277-.144l-.866 2.928a.92.92 0 00.531 1.11c.11.044.218.09.328.13l.825-2.794c.144-.488-.09-1-.541-1.23zM13.912 28.21c-.087-.024-.174-.047-.26-.074l-.836 2.835a.824.824 0 00.595 1.036l.304.07.812-2.754a.892.892 0 00-.618-1.114h.003zM4.756 17.013c-.017-.25-.037-.505-.037-.762s.017-.508.037-.762a.531.531 0 00-.023-.217l-1.94-6.57c-.19.358-.367.726-.528 1.1a1.57 1.57 0 00-.057 1.07l1.588 5.376-1.588 5.376a1.57 1.57 0 00.057 1.07c.164.374.338.742.528 1.1l1.94-6.57c.02-.07.03-.144.023-.217v.006zM5.32 12.45c.143-.445.314-.88.508-1.297.13-.281.16-.595.07-.893L4.624 5.954c-.184.22-.361.448-.532.679a1.22 1.22 0 00-.18 1.07l1.404 4.747h.003zM7.01 9.093c.143-.2.294-.397.447-.588.271-.334.378-.776.254-1.19L6.695 3.87c-.13.11-.257.221-.384.335-.358.32-.505.816-.368 1.277l1.066 3.614v-.004zM9.032 6.873c.123-.107.247-.21.378-.31.374-.298.524-.796.387-1.254l-.886-3.002c-.137.08-.277.163-.41.25a.969.969 0 00-.419 1.094l.953 3.222h-.003zM11.258 5.336l.291-.15c.451-.228.675-.743.532-1.224l-.826-2.795-.325.13a.919.919 0 00-.538 1.11l.866 2.932v-.003zM13.651 4.37c.08-.024.164-.047.247-.07a.896.896 0 00.632-1.117L13.718.428c-.1.02-.2.043-.304.067a.826.826 0 00-.599 1.036l.84 2.838h-.004z" fill="#fff"/><path d="M2.369 16.254l-1.053-3.563c-.19.842-.314 1.708-.368 2.594-.01.177.013.354.064.525l.13.448-.13.448a1.55 1.55 0 00-.064.524c.054.886.177 1.752.368 2.595l1.053-3.564v-.007zM16.341 3.36c.044.3.284.521.572.521h.381a.59.59 0 00.572-.521l.33-2.487C18.265.415 17.934 0 17.496 0h-.783c-.434 0-.768.415-.702.873l.331 2.487zM17.857 29.142a.588.588 0 00-.571-.521h-.382a.591.591 0 00-.571.521l-.331 2.488c-.067.458.264.872.702.872h.782c.435 0 .77-.414.702-.872l-.33-2.488z" fill="#fff"/></svg>