<?xml version="1.0" encoding="utf-8"?><svg width="24" height="24" fill="none" xmlns="http://www.w3.org/2000/svg" viewBox="0 0 24 24"><path fill-rule="evenodd" clip-rule="evenodd" d="M9.514 2.774a.751.751 0 01.854 1.089 7.185 7.185 0 009.766 9.771.75.75 0 011.093.845c-1.055 4.176-4.84 7.271-9.342 7.271-5.318 0-9.635-4.317-9.635-9.635 0-4.486 3.073-8.26 7.215-9.327l.049-.014zM8.348 4.788a8.14 8.14 0 00-4.598 7.327 8.139 8.139 0 008.135 8.135 8.141 8.141 0 007.327-4.598 8.68 8.68 0 01-2.568.386c-4.792 0-8.682-3.89-8.682-8.682 0-.894.135-1.756.386-2.568z" fill="#fff"/></svg>